<svg xmlns="http://www.w3.org/2000/svg" viewBox="0 0 920 520" width="920" height="520">

  <defs>
    <marker id="arrowhead" markerWidth="7" markerHeight="5" refX="7" refY="2.5" orient="auto">
      <polygon points="0 0, 7 2.5, 0 5" fill="#334155"/>
    </marker>
    <linearGradient id="gitGrad" x1="0%" y1="0%" x2="0%" y2="100%">
      <stop offset="0%" stop-color="#64748B"/>
      <stop offset="100%" stop-color="#475569"/>
    </linearGradient>
    <linearGradient id="filterGrad" x1="0%" y1="0%" x2="0%" y2="100%">
      <stop offset="0%" stop-color="#CBD5E1"/>
      <stop offset="100%" stop-color="#94A3B8"/>
    </linearGradient>
    <linearGradient id="crabGrad" x1="0%" y1="0%" x2="0%" y2="100%">
      <stop offset="0%" stop-color="#38BDF8"/>
      <stop offset="100%" stop-color="#0EA5E9"/>
    </linearGradient>
    <linearGradient id="outputGrad" x1="0%" y1="0%" x2="0%" y2="100%">
      <stop offset="0%" stop-color="#1E293B"/>
      <stop offset="100%" stop-color="#0F172A"/>
    </linearGradient>
  </defs>

  <g id="background">
    <rect x="0" y="0" width="920" height="520" fill="#FFFFFF"/>
  </g>

  <g id="containers">
    <rect x="40" y="90" width="380" height="390" rx="12" fill="#F8FAFC" stroke="#CBD5E1" stroke-width="1.5"/>
    <rect x="460" y="170" width="240" height="310" rx="12" fill="#F0F9FF" stroke="#BAE6FD" stroke-width="1.5"/>
  </g>

  <g id="nodes">
    <rect x="70"  y="160" width="160" height="50" rx="8" fill="url(#gitGrad)" stroke="#334155" stroke-width="1.5"/>
    <rect x="70"  y="270" width="160" height="50" rx="8" fill="url(#gitGrad)" stroke="#334155" stroke-width="1.5"/>
    <rect x="70"  y="380" width="160" height="50" rx="8" fill="url(#gitGrad)" stroke="#334155" stroke-width="1.5"/>

    <rect x="280" y="160" width="120" height="50" rx="8" fill="url(#filterGrad)" stroke="#64748B" stroke-width="1.5"/>
    <rect x="280" y="270" width="120" height="50" rx="8" fill="url(#filterGrad)" stroke="#64748B" stroke-width="1.5"/>
    <rect x="280" y="380" width="120" height="50" rx="8" fill="url(#filterGrad)" stroke="#64748B" stroke-width="1.5"/>

    <rect x="480" y="270" width="200" height="50" rx="8" fill="url(#crabGrad)" stroke="#0284C7" stroke-width="1.5"/>
    <rect x="480" y="380" width="200" height="50" rx="8" fill="url(#crabGrad)" stroke="#0284C7" stroke-width="1.5"/>

    <rect x="740" y="270" width="140" height="50" rx="8" fill="url(#outputGrad)" stroke="#0F172A" stroke-width="1.5"/>
    <rect x="740" y="380" width="140" height="50" rx="8" fill="url(#outputGrad)" stroke="#0F172A" stroke-width="1.5"/>
  </g>

  <g id="labels">
    <text x="460" y="50" text-anchor="middle" font-family="Arial, Helvetica, sans-serif" font-size="18" font-weight="bold" fill="#0F172A">How Crab Integrates with Git</text>

    <text x="60" y="130" font-family="Arial, Helvetica, sans-serif" font-size="12" font-weight="bold" fill="#64748B" letter-spacing="0.5">GIT OPERATIONS</text>
    <text x="480" y="210" font-family="Arial, Helvetica, sans-serif" font-size="12" font-weight="bold" fill="#0284C7" letter-spacing="0.5">CRAB BINARY</text>

    <text x="150" y="190" text-anchor="middle" font-family="Arial, Helvetica, sans-serif" font-size="13" font-weight="bold" fill="#FFFFFF">git add / commit</text>
    <text x="150" y="300" text-anchor="middle" font-family="Arial, Helvetica, sans-serif" font-size="13" font-weight="bold" fill="#FFFFFF">git checkout</text>
    <text x="150" y="410" text-anchor="middle" font-family="Arial, Helvetica, sans-serif" font-size="13" font-weight="bold" fill="#FFFFFF">git push / fetch</text>

    <text x="340" y="190" text-anchor="middle" font-family="Arial, Helvetica, sans-serif" font-size="13" font-weight="bold" fill="#1E293B">Clean</text>
    <text x="340" y="300" text-anchor="middle" font-family="Arial, Helvetica, sans-serif" font-size="13" font-weight="bold" fill="#1E293B">Smudge</text>
    <text x="340" y="410" text-anchor="middle" font-family="Arial, Helvetica, sans-serif" font-size="13" font-weight="bold" fill="#1E293B">Remote</text>

    <text x="580" y="300" text-anchor="middle" font-family="Arial, Helvetica, sans-serif" font-size="13" font-weight="bold" fill="#FFFFFF">crab filter-process</text>
    <text x="580" y="410" text-anchor="middle" font-family="Arial, Helvetica, sans-serif" font-size="13" font-weight="bold" fill="#FFFFFF">git-remote-crab</text>

    <text x="810" y="290" text-anchor="middle" font-family="Arial, Helvetica, sans-serif" font-size="12" font-weight="bold" fill="#F1F5F9">Chunks +</text>
    <text x="810" y="306" text-anchor="middle" font-family="Arial, Helvetica, sans-serif" font-size="12" font-weight="bold" fill="#F1F5F9">Pointers</text>
    <text x="810" y="410" text-anchor="middle" font-family="Arial, Helvetica, sans-serif" font-size="12" font-weight="bold" fill="#F1F5F9">Cloud Storage</text>
  </g>

  <g id="connections">
    <line x1="230" y1="185" x2="280" y2="185" stroke="#334155" stroke-width="1.5" marker-end="url(#arrowhead)"/>
    <line x1="230" y1="295" x2="280" y2="295" stroke="#334155" stroke-width="1.5" marker-end="url(#arrowhead)"/>
    <line x1="230" y1="405" x2="280" y2="405" stroke="#334155" stroke-width="1.5" marker-end="url(#arrowhead)"/>

    <path d="M 340 210 L 340 235 L 580 235 L 580 270" fill="none" stroke="#334155" stroke-width="1.5" marker-end="url(#arrowhead)"/>
    <line x1="400" y1="295" x2="480" y2="295" stroke="#334155" stroke-width="1.5" marker-end="url(#arrowhead)"/>
    <line x1="400" y1="405" x2="480" y2="405" stroke="#334155" stroke-width="1.5" marker-end="url(#arrowhead)"/>

    <line x1="680" y1="295" x2="740" y2="295" stroke="#334155" stroke-width="1.5" marker-end="url(#arrowhead)"/>
    <line x1="680" y1="405" x2="740" y2="405" stroke="#334155" stroke-width="1.5" marker-end="url(#arrowhead)"/>
  </g>

</svg>
